<svg width="140" height="109" viewBox="0 0 140 109" version="1.1" xmlns="http://www.w3.org/2000/svg" xmlns:xlink="http://www.w3.org/1999/xlink">
<title>caredown-setup-complete</title>
<desc>Created using Figma</desc>
<g id="Canvas" transform="translate(-1506 -2490)">
<g id="caredown-setup-complete">
<g id="Vector">
<use xlink:href="#path0_stroke" transform="matrix(0.372912 0.927867 -0.929411 0.369047 1635.18 2524.95)" fill="#27AE60"/>
</g>
<g id="Rectangle">
<use xlink:href="#path1_fill" transform="matrix(0.988969 0.148124 -0.148124 0.988969 1560.78 2490.08)" fill="#333333"/>
<mask id="mask0_outline_ins">
<use xlink:href="#path1_fill" fill="white" transform="matrix(0.988969 0.148124 -0.148124 0.988969 1560.78 2490.08)"/>
</mask>
<g mask="url(#mask0_outline_ins)">
<use xlink:href="#path2_stroke_2x" transform="matrix(0.988969 0.148124 -0.148124 0.988969 1560.78 2490.08)" fill="#333333"/>
</g>
</g>
<g id="Rectangle">
<use xlink:href="#path3_fill" transform="matrix(0.988969 0.148124 -0.148124 0.988969 1562.5 2499.81)" fill="#FFFFFF"/>
<mask id="mask1_outline_ins">
<use xlink:href="#path3_fill" fill="white" transform="matrix(0.988969 0.148124 -0.148124 0.988969 1562.5 2499.81)"/>
</mask>
<g mask="url(#mask1_outline_ins)">
<use xlink:href="#path4_stroke_2x" transform="matrix(0.988969 0.148124 -0.148124 0.988969 1562.5 2499.81)" fill="#333333"/>
</g>
</g>
<g id="Vector">
<use xlink:href="#path5_stroke" transform="matrix(0.672252 -0.740322 0.743276 0.668985 1527.25 2512.99)" fill="#9B51E0"/>
</g>
<g id="Vector">
<use xlink:href="#path6_stroke" transform="matrix(0.517859 -0.855466 0.857215 0.514959 1625.24 2575.1)" fill="#F2C94C"/>
</g>
<g id="Polygon">
<mask id="mask2_outline_ins">
<use xlink:href="#path7_fill" fill="white" transform="matrix(0.988969 0.148124 -0.148124 0.988969 1506.75 2547.23)"/>
</mask>
<g mask="url(#mask2_outline_ins)">
<use xlink:href="#path8_stroke_2x" transform="matrix(0.988969 0.148124 -0.148124 0.988969 1506.75 2547.23)" fill="#9B51E0"/>
</g>
</g>
<g id="Polygon">
<mask id="mask3_outline_ins">
<use xlink:href="#path7_fill" fill="white" transform="matrix(0.988969 0.148124 -0.148124 0.988969 1611.87 2551.4)"/>
</mask>
<g mask="url(#mask3_outline_ins)">
<use xlink:href="#path8_stroke_2x" transform="matrix(0.988969 0.148124 -0.148124 0.988969 1611.87 2551.4)" fill="#27AE60"/>
</g>
</g>
<g id="Polygon">
<mask id="mask4_outline_ins">
<use xlink:href="#path7_fill" fill="white" transform="matrix(0.988969 0.148124 -0.148124 0.988969 1539.17 2493.15)"/>
</mask>
<g mask="url(#mask4_outline_ins)">
<use xlink:href="#path8_stroke_2x" transform="matrix(0.988969 0.148124 -0.148124 0.988969 1539.17 2493.15)" fill="#F2C94C"/>
</g>
</g>
<g id="Ellipse">
<mask id="mask5_outline_ins">
<use xlink:href="#path9_fill" fill="white" transform="matrix(0.988969 0.148124 -0.148124 0.988969 1511.53 2515.33)"/>
</mask>
<g mask="url(#mask5_outline_ins)">
<use xlink:href="#path10_stroke_2x" transform="matrix(0.988969 0.148124 -0.148124 0.988969 1511.53 2515.33)" fill="#27AE60"/>
</g>
</g>
<g id="Ellipse">
<mask id="mask6_outline_ins">
<use xlink:href="#path9_fill" fill="white" transform="matrix(0.988969 0.148124 -0.148124 0.988969 1620.88 2505.39)"/>
</mask>
<g mask="url(#mask6_outline_ins)">
<use xlink:href="#path10_stroke_2x" transform="matrix(0.988969 0.148124 -0.148124 0.988969 1620.88 2505.39)" fill="#9B51E0"/>
</g>
</g>
<g id="Ellipse">
<mask id="mask7_outline_ins">
<use xlink:href="#path9_fill" fill="white" transform="matrix(0.988969 0.148124 -0.148124 0.988969 1527.72 2576.69)"/>
</mask>
<g mask="url(#mask7_outline_ins)">
<use xlink:href="#path10_stroke_2x" transform="matrix(0.988969 0.148124 -0.148124 0.988969 1527.72 2576.69)" fill="#27AE60"/>
</g>
</g>
<g id="Rectangle 2">
<mask id="mask8_outline_ins">
<use xlink:href="#path11_fill" fill="white" transform="matrix(0.988969 0.148124 -0.148124 0.988969 1609.58 2587.89)"/>
</mask>
<g mask="url(#mask8_outline_ins)">
<use xlink:href="#path12_stroke_2x" transform="matrix(0.988969 0.148124 -0.148124 0.988969 1609.58 2587.89)" fill="#9B51E0"/>
</g>
</g>
<g id="Rectangle 2.1">
<mask id="mask9_outline_ins">
<use xlink:href="#path11_fill" fill="white" transform="matrix(0.988969 0.148124 -0.148124 0.988969 1638.7 2541.74)"/>
</mask>
<g mask="url(#mask9_outline_ins)">
<use xlink:href="#path12_stroke_2x" transform="matrix(0.988969 0.148124 -0.148124 0.988969 1638.7 2541.74)" fill="#F2C94C"/>
</g>
</g>
<g id="Rectangle 2.2">
<mask id="mask10_outline_ins">
<use xlink:href="#path11_fill" fill="white" transform="matrix(0.988969 0.148124 -0.148124 0.988969 1528.67 2542.1)"/>
</mask>
<g mask="url(#mask10_outline_ins)">
<use xlink:href="#path12_stroke_2x" transform="matrix(0.988969 0.148124 -0.148124 0.988969 1528.67 2542.1)" fill="#F2C94C"/>
</g>
</g>
<g id="Vector">
<use xlink:href="#path13_stroke" transform="matrix(0.988969 0.148124 -0.148124 0.988969 1568.94 2534.45)" fill="#27AE60"/>
</g>
</g>
</g>
<defs>
<path id="path0_stroke" d="M 3.48023 0.353138C 3.67526 0.157647 3.67489 -0.158935 3.4794 -0.353968C 3.28391 -0.549001 2.96733 -0.548629 2.77229 -0.353138L 3.48023 0.353138ZM 1.73021 11.1367C 1.53517 11.3322 1.53554 11.6488 1.73104 11.8439C 1.92653 12.0389 2.24311 12.0385 2.43814 11.843L 1.73021 11.1367ZM 2.60522 10.9676L 2.25125 10.6145L 2.60522 10.9676ZM 2.60522 0.522268L 2.25125 0.169129L 2.60522 0.522268ZM 2.77229 -0.353138L 2.25125 0.169129L 2.95919 0.875406L 3.48023 0.353138L 2.77229 -0.353138ZM 2.25125 10.6145L 1.73021 11.1367L 2.43814 11.843L 2.95919 11.3208L 2.25125 10.6145ZM 2.25125 6.09808C 3.49635 7.34611 3.49635 9.36646 2.25125 10.6145L 2.95919 11.3208C 4.5937 9.6824 4.5937 7.03017 2.95919 5.39181L 2.25125 6.09808ZM 2.25125 0.169129C 0.616731 1.80749 0.61673 4.45972 2.25125 6.09808L 2.95919 5.39181C 1.71409 4.14378 1.71409 2.12343 2.95919 0.875406L 2.25125 0.169129Z"/>
<path id="path1_fill" d="M 0 4C 0 1.79086 1.79086 0 4 0L 48.2901 0C 50.4992 0 52.2901 1.79086 52.2901 4L 52.2901 98C 52.2901 100.209 50.4992 102 48.2901 102L 4 102C 1.79086 102 0 100.209 0 98L 0 4Z"/>
<path id="path2_stroke_2x" d="M 4 1L 48.2901 1L 48.2901 -1L 4 -1L 4 1ZM 51.2901 4L 51.2901 98L 53.2901 98L 53.2901 4L 51.2901 4ZM 48.2901 101L 4 101L 4 103L 48.2901 103L 48.2901 101ZM 1 98L 1 4L -1 4L -1 98L 1 98ZM 4 101C 2.34315 101 1 99.6569 1 98L -1 98C -1 100.761 1.23858 103 4 103L 4 101ZM 51.2901 98C 51.2901 99.6569 49.9469 101 48.2901 101L 48.2901 103C 51.0515 103 53.2901 100.761 53.2901 98L 51.2901 98ZM 48.2901 1C 49.9469 1 51.2901 2.34315 51.2901 4L 53.2901 4C 53.2901 1.23858 51.0515 -1 48.2901 -1L 48.2901 1ZM 4 -1C 1.23858 -1 -1 1.23858 -1 4L 1 4C 1 2.34315 2.34315 1 4 1L 4 -1Z"/>
<path id="path3_fill" d="M 0 3C 0 1.34314 1.34315 0 3 0L 43.0153 0C 44.6721 0 46.0153 1.34315 46.0153 3L 46.0153 80.2653C 46.0153 81.9222 44.6721 83.2653 43.0153 83.2653L 3 83.2653C 1.34315 83.2653 0 81.9222 0 80.2653L 0 3Z"/>
<path id="path4_stroke_2x" d="M 3 1L 43.0153 1L 43.0153 -1L 3 -1L 3 1ZM 45.0153 3L 45.0153 80.2653L 47.0153 80.2653L 47.0153 3L 45.0153 3ZM 43.0153 82.2653L 3 82.2653L 3 84.2653L 43.0153 84.2653L 43.0153 82.2653ZM 1 80.2653L 1 3L -1 3L -1 80.2653L 1 80.2653ZM 3 82.2653C 1.89543 82.2653 1 81.3699 1 80.2653L -1 80.2653C -1 82.4744 0.790862 84.2653 3 84.2653L 3 82.2653ZM 45.0153 80.2653C 45.0153 81.3699 44.1198 82.2653 43.0153 82.2653L 43.0153 84.2653C 45.2244 84.2653 47.0153 82.4744 47.0153 80.2653L 45.0153 80.2653ZM 43.0153 1C 44.1198 1 45.0153 1.89543 45.0153 3L 47.0153 3C 47.0153 0.790861 45.2244 -1 43.0153 -1L 43.0153 1ZM 3 -1C 0.790862 -1 -1 0.790859 -1 3L 1 3C 1 1.89543 1.89543 1 3 1L 3 -1Z"/>
<path id="path5_stroke" d="M 3.48092 0.353226C 3.676 0.157783 3.6757 -0.158799 3.48026 -0.353881C 3.28482 -0.548962 2.96824 -0.548669 2.77316 -0.353226L 3.48092 0.353226ZM 1.73081 11.1338C 1.53573 11.3293 1.53602 11.6459 1.73146 11.8409C 1.92691 12.036 2.24349 12.0357 2.43857 11.8403L 1.73081 11.1338ZM 2.77316 -0.353226L 2.25198 0.168913L 2.95974 0.875365L 3.48092 0.353226L 2.77316 -0.353226ZM 2.25198 10.6117L 1.73081 11.1338L 2.43857 11.8403L 2.95974 11.3181L 2.25198 10.6117ZM 2.25198 6.09675C 3.49712 7.34419 3.49712 9.36425 2.25198 10.6117L 2.95974 11.3181C 4.59453 9.68033 4.59453 7.02812 2.95974 5.3903L 2.25198 6.09675ZM 2.25198 0.168913C 0.617198 1.80673 0.617198 4.45894 2.25198 6.09675L 2.95974 5.3903C 1.71461 4.14286 1.71461 2.12281 2.95974 0.875365L 2.25198 0.168913Z"/>
<path id="path6_stroke" d="M 3.47881 0.352957C 3.67374 0.157366 3.67321 -0.159216 3.47761 -0.354149C 3.28202 -0.549081 2.96544 -0.548548 2.77051 -0.352957L 3.47881 0.352957ZM 1.72896 11.1428C 1.53402 11.3384 1.53456 11.655 1.73015 11.8499C 1.92574 12.0448 2.24232 12.0443 2.43725 11.8487L 1.72896 11.1428ZM 2.60388 10.9732L 2.24973 10.6203L 2.60388 10.9732ZM 2.77051 -0.352957L 2.24973 0.169577L 2.95803 0.875491L 3.47881 0.352957L 2.77051 -0.352957ZM 2.24973 10.6203L 1.72896 11.1428L 2.43725 11.8487L 2.95803 11.3262L 2.24973 10.6203ZM 2.24973 6.10083C 3.49477 7.35007 3.49477 9.37103 2.24973 10.6203L 2.95803 11.3262C 4.592 9.68669 4.592 7.0344 2.95803 5.39492L 2.24973 6.10083ZM 2.24973 0.169577C 0.615763 1.80906 0.615763 4.46135 2.24973 6.10083L 2.95803 5.39492C 1.713 4.14568 1.713 2.12473 2.95803 0.875491L 2.24973 0.169577Z"/>
<path id="path7_fill" d="M 5.22901 0L 9.75746 7.80612L 0.700554 7.80612L 5.22901 0Z"/>
<path id="path8_stroke_2x" d="M 5.22901 0L 6.094 -0.501793L 5.22901 -1.99285L 4.36402 -0.501793L 5.22901 0ZM 9.75746 7.80612L 9.75746 8.80612L 11.4937 8.80612L 10.6224 7.30433L 9.75746 7.80612ZM 0.700554 7.80612L -0.164434 7.30433L -1.03565 8.80612L 0.700554 8.80612L 0.700554 7.80612ZM 4.36402 0.501793L 8.89247 8.30792L 10.6224 7.30433L 6.094 -0.501793L 4.36402 0.501793ZM 9.75746 6.80612L 0.700554 6.80612L 0.700554 8.80612L 9.75746 8.80612L 9.75746 6.80612ZM 1.56554 8.30792L 6.094 0.501793L 4.36402 -0.501793L -0.164434 7.30433L 1.56554 8.30792Z"/>
<path id="path9_fill" d="M 7.32061 3.64286C 7.32061 5.65475 5.68184 7.28571 3.66031 7.28571C 1.63877 7.28571 0 5.65475 0 3.64286C 0 1.63096 1.63877 0 3.66031 0C 5.68184 0 7.32061 1.63096 7.32061 3.64286Z"/>
<path id="path10_stroke_2x" d="M 6.32061 3.64286C 6.32061 5.09797 5.13406 6.28571 3.66031 6.28571L 3.66031 8.28571C 6.22961 8.28571 8.32061 6.21154 8.32061 3.64286L 6.32061 3.64286ZM 3.66031 6.28571C 2.18655 6.28571 1 5.09797 1 3.64286L -1 3.64286C -1 6.21154 1.091 8.28571 3.66031 8.28571L 3.66031 6.28571ZM 1 3.64286C 1 2.18775 2.18655 1 3.66031 1L 3.66031 -1C 1.091 -1 -1 1.07418 -1 3.64286L 1 3.64286ZM 3.66031 1C 5.13406 1 6.32061 2.18775 6.32061 3.64286L 8.32061 3.64286C 8.32061 1.07418 6.22961 -1 3.66031 -1L 3.66031 1Z"/>
<path id="path11_fill" d="M 0 0L 7.32061 0L 7.32061 7.28571L 0 7.28571L 0 0Z"/>
<path id="path12_stroke_2x" d="M 0 0L 0 -1L -1 -1L -1 0L 0 0ZM 7.32061 0L 8.32061 0L 8.32061 -1L 7.32061 -1L 7.32061 0ZM 7.32061 7.28571L 7.32061 8.28571L 8.32061 8.28571L 8.32061 7.28571L 7.32061 7.28571ZM 0 7.28571L -1 7.28571L -1 8.28571L 0 8.28571L 0 7.28571ZM 0 1L 7.32061 1L 7.32061 -1L 0 -1L 0 1ZM 6.32061 0L 6.32061 7.28571L 8.32061 7.28571L 8.32061 0L 6.32061 0ZM 7.32061 6.28571L 0 6.28571L 0 8.28571L 7.32061 8.28571L 7.32061 6.28571ZM 1 7.28571L 1 0L -1 0L -1 7.28571L 1 7.28571Z"/>
<path id="path13_stroke" d="M 1.78903 5.90682C 0.82461 4.91876 -0.758186 4.89961 -1.74624 5.86403C -2.7343 6.82845 -2.75346 8.41125 -1.78903 9.3993L 1.78903 5.90682ZM 7.76881 15.6122L 5.97978 17.3585L 7.76881 19.1914L 9.55784 17.3585L 7.76881 15.6122ZM 24.7967 1.74624C 25.7611 0.758186 25.7419 -0.82461 24.7539 -1.78903C 23.7658 -2.75346 22.183 -2.7343 21.2186 -1.74624L 24.7967 1.74624ZM -1.78903 9.3993L 5.97978 17.3585L 9.55784 13.866L 1.78903 5.90682L -1.78903 9.3993ZM 9.55784 17.3585L 24.7967 1.74624L 21.2186 -1.74624L 5.97978 13.866L 9.55784 17.3585Z"/>
</defs>
</svg>
